<svg width="1280" height="640" viewBox="0 0 1280 640" xmlns="http://www.w3.org/2000/svg" role="img" aria-labelledby="title desc">
  <title id="title">gmail-triage</title>
  <desc id="desc">Read-only Gmail inbox triage for AI agents — classifies mail into security, urgent, important, personal, updates, and ads, with an opencode skill.</desc>

  <defs>
    <linearGradient id="bg" x1="0" y1="0" x2="1" y2="1">
      <stop offset="0%" stop-color="#1a1b26"/>
      <stop offset="100%" stop-color="#0f1020"/>
    </linearGradient>
    <linearGradient id="accent" x1="0" y1="0" x2="1" y2="0">
      <stop offset="0%" stop-color="#EA4335"/>
      <stop offset="50%" stop-color="#FBBC05"/>
      <stop offset="100%" stop-color="#4285F4"/>
    </linearGradient>
    <filter id="glow" x="-20%" y="-20%" width="140%" height="140%">
      <feGaussianBlur stdDeviation="18" result="b"/>
      <feMerge><feMergeNode in="b"/><feMergeNode in="SourceGraphic"/></feMerge>
    </filter>
  </defs>

  <rect width="1280" height="640" fill="url(#bg)"/>
  <circle cx="1120" cy="120" r="260" fill="#4285F4" opacity="0.06"/>
  <circle cx="140" cy="560" r="300" fill="#EA4335" opacity="0.05"/>

  <!-- envelope -->
  <g transform="translate(220,140)" filter="url(#glow)">
    <rect x="0" y="40" width="150" height="110" rx="14" fill="#ffffff"/>
    <path d="M 0 40 L 75 110 L 150 40" fill="none" stroke="#EA4335" stroke-width="8" stroke-linejoin="round"/>
    <rect x="22" y="96" width="106" height="8" rx="4" fill="#FBBC05"/>
    <rect x="36" y="112" width="78" height="8" rx="4" fill="#4285F4"/>
  </g>

  <!-- title -->
  <text x="450" y="220" font-family="Segoe UI, Helvetica, Arial, sans-serif" font-size="88" font-weight="700" fill="#ffffff">gmail<span fill="#4285F4">-</span><tspan fill="#FBBC05">triage</tspan></text>

  <text x="452" y="278" font-family="Segoe UI, Helvetica, Arial, sans-serif" font-size="30" font-weight="400" fill="#a9b1d6">
    Read-only Gmail inbox classification for AI agents
  </text>

  <!-- category pills -->
  <g transform="translate(450,360)" font-family="Segoe UI, Helvetica, Arial, sans-serif" font-size="24" font-weight="600">
    <rect x="0"   y="0"  width="150" height="52" rx="26" fill="#F28C28" opacity="0.92"/>
    <text x="75" y="34" text-anchor="middle" fill="#1a1b26">security</text>

    <rect x="165" y="0"  width="130" height="52" rx="26" fill="#F5365C" opacity="0.92"/>
    <text x="230" y="34" text-anchor="middle" fill="#1a1b26">urgent</text>

    <rect x="310" y="0"  width="160" height="52" rx="26" fill="#4C8BF5" opacity="0.92"/>
    <text x="390" y="34" text-anchor="middle" fill="#ffffff">important</text>

    <rect x="485" y="0"  width="150" height="52" rx="26" fill="#5E8B7E" opacity="0.92"/>
    <text x="560" y="34" text-anchor="middle" fill="#ffffff">personal</text>

    <rect x="650" y="0"  width="145" height="52" rx="26" fill="#7F8DA4" opacity="0.92"/>
    <text x="722" y="34" text-anchor="middle" fill="#ffffff">updates</text>

    <rect x="0"   y="68" width="115" height="52" rx="26" fill="#7D5BA6" opacity="0.92"/>
    <text x="57"  y="102" text-anchor="middle" fill="#ffffff">ads</text>

    <rect x="130" y="68" width="110" height="52" rx="26" fill="#4b4f5e" opacity="0.92"/>
    <text x="185" y="102" text-anchor="middle" fill="#cdd3e6">other</text>
  </g>

  <text x="450" y="560" font-family="Segoe UI, Consolas, monospace" font-size="26" fill="#7aa2f7">
    $ gmail-triage classify --hours 24 --json
  </text>

  <g font-family="Segoe UI, Helvetica, Arial, sans-serif" font-size="20" fill="#565f89">
    <text x="450" y="610">hybrid rules + LLM</text>
    <text x="660" y="610">CLI + skill</text>
    <text x="800" y="610">any agent harness</text>
  </g>
</svg>
